<svg xmlns="http://www.w3.org/2000/svg" version="1.1" viewBox="262.48 221 496.07 550.32"><path d="M 693.398 222.889 C 685.580 225.127, 678.860 229.085, 672.213 235.365 C 666.697 240.576, 660.654 249.533, 659.472 254.250 L 658.783 257 598.573 257 C 547.638 257, 537.526 257.235, 532.932 258.526 C 527.679 260.001, 526.101 261.464, 485.159 302.776 C 461.871 326.274, 441.621 347.040, 440.159 348.922 L 437.500 352.343 437 433.547 L 436.500 514.751 381 440.626 C 350.475 399.857, 323.256 364.094, 320.514 361.154 C 317.772 358.213, 313.497 354.613, 311.014 353.154 C 306.685 350.609, 305.804 350.487, 289.500 350.171 L 272.500 349.842 272.757 490.921 L 273.014 632 297.007 632 L 321 632 321 537.869 L 321 443.737 349.250 481.195 C 364.788 501.797, 396.625 544.135, 420 575.279 C 453.747 620.242, 462.963 631.914, 464.750 631.952 L 467 632 467 495.745 L 467 359.490 503.755 322.745 L 540.510 286 599.597 286 L 658.683 286 659.819 289.789 C 661.439 295.198, 668.852 305.434, 674.570 310.159 C 684.230 318.142, 695.144 322.008, 707.960 321.988 C 722.013 321.966, 733.580 317.241, 743.432 307.500 C 760.181 290.939, 763.411 264.341, 751.019 245.029 C 738.862 226.085, 714.685 216.795, 693.398 222.889 M 697.500 250.900 C 685.899 256.283, 680.929 269.962, 686.383 281.500 C 690.732 290.699, 697.573 295, 707.854 295 C 721.075 295, 731 285.284, 731 272.341 C 731 262.571, 727.286 256.106, 719.119 251.661 C 713.028 248.346, 703.711 248.018, 697.500 250.900 M 514 491.082 L 514 632.165 583.250 631.739 C 641.521 631.380, 654.065 631.051, 662.371 629.662 C 691.909 624.725, 710.761 614.015, 723.153 595.131 C 731.368 582.611, 735.741 564.879, 734.653 548.500 C 732.870 521.664, 720.548 502.385, 697.949 491.071 C 692.377 488.282, 687.072 485.991, 686.159 485.979 C 685.247 485.968, 687.425 484.511, 691 482.741 C 695.307 480.609, 700.039 476.990, 705.028 472.012 C 717.469 459.597, 723 445.194, 723 425.213 C 723 405.352, 716.716 389.654, 703.500 376.500 C 691.803 364.857, 681.410 359.266, 662.631 354.514 C 646.439 350.416, 638.450 350.006, 574.750 350.003 L 514 350 514 491.082 M 568 433.500 L 568 469 601.250 468.983 C 643.609 468.961, 650.321 467.732, 660.336 458.165 C 666.752 452.036, 669.301 445.917, 669.778 435.500 C 670.124 427.943, 669.829 425.543, 667.941 420.531 C 663.603 409.016, 653.058 401.404, 638 398.919 C 634.975 398.420, 617.987 398.009, 600.250 398.006 L 568 398 568 433.500 M 568 547.998 L 568 585.158 608.250 584.737 C 651.195 584.288, 653.101 584.086, 663.480 578.903 C 669.202 576.045, 675.471 569.399, 678.315 563.176 C 681.369 556.490, 681.369 541.510, 678.315 534.824 C 673.808 524.961, 664.420 517.375, 652.123 513.660 C 646.113 511.844, 641.915 511.621, 606.750 511.248 L 568 510.837 568 547.998 M 304 671.670 C 298.856 672.488, 289.326 676.376, 284.249 679.729 C 262.930 693.805, 256.111 723.809, 269.057 746.569 C 272.149 752.005, 281.288 761.244, 287 764.708 C 301.831 773.700, 324.309 773.427, 338.880 764.077 C 346.414 759.243, 353.664 750.916, 357.653 742.516 L 361.222 735 458.642 735 C 550.537 735, 556.095 735.099, 556.639 736.750 C 559.935 746.755, 568.580 757.828, 577.613 763.612 C 593.419 773.733, 615.746 773.895, 631.340 764.001 C 658.667 746.662, 662.854 708.994, 640.018 685.911 C 620.260 665.939, 587.790 666.045, 567.950 686.146 C 562.999 691.161, 556 702.722, 556 705.883 C 556 706.726, 532.991 706.982, 467.250 706.873 C 418.438 706.792, 374.450 706.519, 369.500 706.267 L 360.500 705.808 357.121 698.696 C 348.033 679.562, 325.729 668.215, 304 671.670 M 304.885 699.319 C 296.169 702.581, 290.404 709.793, 289.341 718.767 C 287.490 734.399, 302.985 748.043, 317.999 744 C 333.720 739.767, 340.760 722.850, 332.415 709.354 C 326.816 700.298, 314.382 695.765, 304.885 699.319 M 597.994 698.934 C 586.831 702.330, 580.117 712.155, 581.277 723.396 C 582.566 735.882, 591.973 744.407, 604.500 744.440 C 626.622 744.497, 636.241 716.690, 618.815 703.058 C 613.317 698.757, 604.389 696.989, 597.994 698.934" stroke="none" fill="#046878" fill-rule="evenodd" data-index="0" style="visibility: visible;"/></svg>